<?xml version="1.0" standalone="no"?>
<!DOCTYPE svg PUBLIC "-//W3C//DTD SVG 20010904//EN"
 "http://www.w3.org/TR/2001/REC-SVG-20010904/DTD/svg10.dtd">
<svg version="1.0" xmlns="http://www.w3.org/2000/svg"
 width="195.000000pt" height="195.000000pt" viewBox="0 0 195.000000 195.000000"
 preserveAspectRatio="xMidYMid meet">

<g transform="translate(0.000000,195.000000) scale(0.100000,-0.100000)"
fill="#000000" stroke="none">
<path d="M0 975 l0 -975 975 0 975 0 0 975 0 975 -975 0 -975 0 0 -975z m850
220 c79 -173 146 -315 150 -315 3 0 62 141 131 313 l125 312 182 3 c142 2 182
0 182 -10 0 -7 -27 -38 -60 -69 l-60 -55 0 -383 0 -383 60 -62 c33 -35 60 -66
60 -69 0 -4 -117 -7 -260 -7 -143 0 -260 3 -260 7 0 4 27 35 60 68 l60 61 -2
301 -3 300 -145 -369 c-127 -324 -147 -368 -165 -366 -15 2 -55 80 -187 367
-92 200 -170 366 -173 369 -9 9 -5 -496 4 -520 5 -13 41 -61 80 -108 39 -46
71 -90 71 -97 0 -10 -44 -13 -195 -13 -151 0 -195 3 -195 13 0 7 32 51 71 97
39 47 75 95 80 108 12 30 12 593 0 624 -5 13 -36 57 -70 98 -33 41 -61 81 -61
88 0 9 44 12 188 12 l189 0 143 -315z"/>
</g>
</svg>
