<?xml version="1.0" standalone="no"?>
<!DOCTYPE svg PUBLIC "-//W3C//DTD SVG 20010904//EN"
 "http://www.w3.org/TR/2001/REC-SVG-20010904/DTD/svg10.dtd">
<svg version="1.0" xmlns="http://www.w3.org/2000/svg"
 width="1152.000000pt" height="648.000000pt" viewBox="0 0 1152.000000 648.000000"
 preserveAspectRatio="xMidYMid meet">

<g transform="translate(0.000000,648.000000) scale(0.100000,-0.100000)"
fill="#000000" stroke="none">
<path d="M0 3240 l0 -3240 5760 0 5760 0 0 3240 0 3240 -5760 0 -5760 0 0
-3240z m4790 1135 c47 -8 108 -21 137 -29 74 -21 269 -105 284 -122 6 -8 15
-14 20 -14 40 0 285 -216 336 -298 10 -15 20 -29 24 -32 3 -3 22 -31 42 -62
215 -339 255 -742 112 -1128 -24 -65 -94 -198 -130 -245 -17 -22 -38 -52 -47
-67 -53 -82 -214 -226 -343 -305 -63 -39 -178 -90 -280 -124 -141 -47 -391
-62 -565 -35 -97 16 -247 63 -317 101 -26 14 -51 25 -56 25 -15 0 -175 111
-230 159 -179 156 -306 352 -380 586 -27 84 -57 275 -57 360 0 138 40 333 96
466 13 31 24 60 24 64 0 14 85 152 135 220 67 89 142 167 225 231 65 50 175
124 186 124 3 0 29 11 57 24 140 63 187 79 312 101 99 18 314 18 415 0z m1865
-69 c82 -22 146 -62 215 -135 141 -149 231 -350 292 -656 19 -97 22 -141 22
-375 -1 -234 -3 -277 -23 -370 -93 -447 -263 -713 -501 -786 -90 -28 -178 -13
-283 46 -91 51 -205 191 -271 332 -30 64 -90 244 -105 313 -47 220 -46 215
-46 470 0 201 4 268 18 340 67 334 161 548 306 696 114 116 246 160 376 125z
m921 -138 c39 -44 48 -62 77 -149 38 -116 72 -346 86 -579 18 -294 8 -645 -24
-855 -8 -49 -19 -124 -26 -165 -12 -77 -39 -168 -67 -230 -20 -42 -71 -100
-89 -100 -7 0 -28 13 -46 30 -49 42 -108 213 -127 365 -5 39 -17 120 -26 180
-24 159 -23 788 1 960 9 66 20 149 25 185 20 151 80 319 127 360 18 17 39 30
46 30 7 0 26 -15 43 -32z"/>
</g>
</svg>
