<?xml version="1.0" standalone="no"?>
<!DOCTYPE svg PUBLIC "-//W3C//DTD SVG 20010904//EN"
 "http://www.w3.org/TR/2001/REC-SVG-20010904/DTD/svg10.dtd">
<svg version="1.0" xmlns="http://www.w3.org/2000/svg"
 width="900.000000pt" height="900.000000pt" viewBox="0 0 900.000000 900.000000"
 preserveAspectRatio="xMidYMid meet">

<g transform="translate(0.000000,900.000000) scale(0.100000,-0.100000)"
fill="#000000" stroke="none">
<path d="M2875 6305 c-688 -89 -1276 -579 -1488 -1240 -56 -174 -78 -307 -84
-500 -10 -324 40 -574 172 -853 231 -487 668 -847 1186 -978 271 -68 584 -72
851 -9 203 47 455 160 628 282 136 96 357 320 446 453 158 234 254 471 300
737 22 126 29 369 15 488 -28 242 -80 415 -186 630 -148 297 -355 531 -633
713 -351 231 -788 331 -1207 277z"/>
<path d="M5830 6184 c-464 -158 -787 -969 -739 -1854 34 -620 230 -1139 527
-1393 121 -104 234 -149 373 -149 254 0 490 198 664 557 154 317 235 714 235
1153 0 646 -182 1218 -485 1517 -180 179 -376 237 -575 169z"/>
<path d="M7328 6010 c-111 -87 -212 -520 -248 -1064 -14 -224 -12 -715 5 -946
48 -667 182 -1089 327 -1029 56 23 112 122 157 281 185 643 173 1998 -21 2563
-28 84 -77 173 -106 196 -32 24 -82 24 -114 -1z"/>
</g>
</svg>
