<?xml version="1.0" standalone="no"?>
<!DOCTYPE svg PUBLIC "-//W3C//DTD SVG 20010904//EN"
 "http://www.w3.org/TR/2001/REC-SVG-20010904/DTD/svg10.dtd">
<svg version="1.0" xmlns="http://www.w3.org/2000/svg"
 width="823.000000pt" height="633.000000pt" viewBox="0 0 823.000000 633.000000"
 preserveAspectRatio="xMidYMid meet">

<g transform="translate(0.000000,633.000000) scale(0.100000,-0.100000)"
fill="#000000" stroke="none">
<path d="M2707 4560 c-296 -54 -554 -188 -763 -395 -562 -558 -573 -1453 -24
-2029 192 -202 447 -344 731 -408 89 -20 132 -23 294 -23 211 0 318 17 479 76
211 78 362 175 526 339 280 279 424 629 423 1025 -1 225 -43 410 -138 612 -73
155 -161 280 -285 403 -197 198 -418 320 -700 387 -150 35 -390 41 -543 13z"/>
<path d="M5165 4488 c-97 -12 -178 -59 -275 -158 -172 -175 -294 -458 -352
-821 -32 -202 -32 -541 0 -739 63 -385 189 -671 372 -843 351 -332 775 -67
955 596 58 214 70 320 69 617 0 242 -2 290 -22 400 -59 321 -152 557 -290 728
-135 169 -286 241 -457 220z"/>
<path d="M6278 4323 c-79 -85 -148 -356 -180 -713 -17 -186 -17 -771 0 -945
56 -580 190 -871 312 -679 226 358 230 1916 5 2300 -41 71 -92 84 -137 37z"/>
</g>
</svg>
