<?xml version="1.0" standalone="no"?>
<!DOCTYPE svg PUBLIC "-//W3C//DTD SVG 20010904//EN"
 "http://www.w3.org/TR/2001/REC-SVG-20010904/DTD/svg10.dtd">
<svg version="1.0" xmlns="http://www.w3.org/2000/svg"
 width="768.000000pt" height="576.000000pt" viewBox="0 0 768.000000 576.000000"
 preserveAspectRatio="xMidYMid meet">

<g transform="translate(0.000000,576.000000) scale(0.100000,-0.100000)"
fill="#000000" stroke="none">
<path d="M2786 4019 c-165 -24 -371 -111 -511 -216 -371 -278 -541 -760 -425
-1211 104 -409 421 -723 839 -833 109 -29 336 -36 456 -15 370 64 677 297 840
638 158 329 152 702 -16 1028 -165 321 -467 543 -826 605 -92 16 -261 18 -357
4z"/>
<path d="M4669 3942 c-114 -46 -211 -146 -291 -299 -59 -112 -90 -200 -122
-343 -158 -711 117 -1503 521 -1502 110 1 190 40 284 139 118 124 202 308 255
557 31 149 44 451 25 612 -45 390 -202 707 -403 814 -54 29 -75 34 -143 37
-61 2 -91 -1 -126 -15z"/>
<path d="M5617 3820 c-177 -209 -207 -1366 -47 -1793 69 -183 159 -145 220 94
60 233 89 633 71 967 -30 548 -135 863 -244 732z"/>
</g>
</svg>
